{
 "cells": [
  {
   "cell_type": "code",
   "execution_count": 1,
   "id": "9df0e6c9",
   "metadata": {},
   "outputs": [],
   "source": [
    "import os\n",
    "import random\n",
    "import subprocess\n",
    "import json"
   ]
  },
  {
   "cell_type": "code",
   "execution_count": 2,
   "id": "50d98bf0",
   "metadata": {},
   "outputs": [],
   "source": [
    "def create_random_clip(video_folder=\"raw_videos\", clip_duration=30):\n",
    "    # Videodateien finden\n",
    "    video_files = [f for f in os.listdir(video_folder) \n",
    "                  if f.lower().endswith(('.mp4', '.avi', '.mov', '.mkv'))]\n",
    "    \n",
    "    if not video_files:\n",
    "        print(f\"Keine Videos gefunden.\")\n",
    "        return\n",
    "    \n",
    "    video_file = random.choice(video_files)\n",
    "    video_path = os.path.join(video_folder, video_file)\n",
    "    \n",
    "    # Videodauer ermitteln\n",
    "    result = subprocess.run(\n",
    "        ['ffprobe', '-v', 'error', '-show_entries', 'format=duration', \n",
    "         '-of', 'json', video_path],\n",
    "        stdout=subprocess.PIPE, stderr=subprocess.PIPE\n",
    "    )\n",
    "    data = json.loads(result.stdout)\n",
    "    duration = float(data['format']['duration'])\n",
    "    \n",
    "    # Zufällige Startzeit berechnen\n",
    "    max_start = max(0, duration - clip_duration)\n",
    "    start_time = random.uniform(0, max_start)\n",
    "    \n",
    "    # Ausgabedatei\n",
    "    output_filename = f\"random_clip_{os.path.splitext(video_file)[0]}.mp4\"\n",
    "    \n",
    "    # Clip erstellen\n",
    "    subprocess.run([\n",
    "        'ffmpeg', '-i', video_path, \n",
    "        '-ss', str(start_time), \n",
    "        '-t', str(clip_duration),\n",
    "        '-c', 'copy', output_filename\n",
    "    ])\n",
    "    \n",
    "    print(f\"10-Sekunden-Clip erstellt: {output_filename}\")"
   ]
  },
  {
   "cell_type": "code",
   "execution_count": 3,
   "id": "f1385606",
   "metadata": {},
   "outputs": [
    {
     "name": "stderr",
     "output_type": "stream",
     "text": [
      "ffmpeg version 6.1.1-3ubuntu5 Copyright (c) 2000-2023 the FFmpeg developers\n",
      "  built with gcc 13 (Ubuntu 13.2.0-23ubuntu3)\n",
      "  configuration: --prefix=/usr --extra-version=3ubuntu5 --toolchain=hardened --libdir=/usr/lib/x86_64-linux-gnu --incdir=/usr/include/x86_64-linux-gnu --arch=amd64 --enable-gpl --disable-stripping --disable-omx --enable-gnutls --enable-libaom --enable-libass --enable-libbs2b --enable-libcaca --enable-libcdio --enable-libcodec2 --enable-libdav1d --enable-libflite --enable-libfontconfig --enable-libfreetype --enable-libfribidi --enable-libglslang --enable-libgme --enable-libgsm --enable-libharfbuzz --enable-libmp3lame --enable-libmysofa --enable-libopenjpeg --enable-libopenmpt --enable-libopus --enable-librubberband --enable-libshine --enable-libsnappy --enable-libsoxr --enable-libspeex --enable-libtheora --enable-libtwolame --enable-libvidstab --enable-libvorbis --enable-libvpx --enable-libwebp --enable-libx265 --enable-libxml2 --enable-libxvid --enable-libzimg --enable-openal --enable-opencl --enable-opengl --disable-sndio --enable-libvpl --disable-libmfx --enable-libdc1394 --enable-libdrm --enable-libiec61883 --enable-chromaprint --enable-frei0r --enable-ladspa --enable-libbluray --enable-libjack --enable-libpulse --enable-librabbitmq --enable-librist --enable-libsrt --enable-libssh --enable-libsvtav1 --enable-libx264 --enable-libzmq --enable-libzvbi --enable-lv2 --enable-sdl2 --enable-libplacebo --enable-librav1e --enable-pocketsphinx --enable-librsvg --enable-libjxl --enable-shared\n",
      "  libavutil      58. 29.100 / 58. 29.100\n",
      "  libavcodec     60. 31.102 / 60. 31.102\n",
      "  libavformat    60. 16.100 / 60. 16.100\n",
      "  libavdevice    60.  3.100 / 60.  3.100\n",
      "  libavfilter     9. 12.100 /  9. 12.100\n",
      "  libswscale      7.  5.100 /  7.  5.100\n",
      "  libswresample   4. 12.100 /  4. 12.100\n",
      "  libpostproc    57.  3.100 / 57.  3.100\n",
      "Input #0, mov,mp4,m4a,3gp,3g2,mj2, from 'raw_videos/250316 - Sarnen - Jets - SF2 - Stream.mp4':\n",
      "  Metadata:\n",
      "    major_brand     : isom\n",
      "    minor_version   : 512\n",
      "    compatible_brands: isomiso2avc1mp41\n",
      "    encoder         : Lavf60.16.100\n",
      "  Duration: 01:55:52.18, start: 0.000000, bitrate: 5088 kb/s\n",
      "  Stream #0:0[0x1](und): Video: h264 (High) (avc1 / 0x31637661), yuv420p(tv, bt709, progressive), 1920x1080 [SAR 1:1 DAR 16:9], 5077 kb/s, 50 fps, 50 tbr, 12800 tbn (default)\n",
      "    Metadata:\n",
      "      handler_name    : ISO Media file produced by Google Inc.\n",
      "      vendor_id       : [0][0][0][0]\n",
      "  Stream #0:1[0x2](eng): Audio: opus (Opus / 0x7375704F), 48000 Hz, stereo, fltp, 1 kb/s (default)\n",
      "    Metadata:\n",
      "      handler_name    : SoundHandler\n",
      "      vendor_id       : [0][0][0][0]\n",
      "[mp4 @ 0x55e530318640] track 1: codec frame size is not set\n",
      "Output #0, mp4, to 'random_clip_250316 - Sarnen - Jets - SF2 - Stream.mp4':\n",
      "  Metadata:\n",
      "    major_brand     : isom\n",
      "    minor_version   : 512\n",
      "    compatible_brands: isomiso2avc1mp41\n",
      "    encoder         : Lavf60.16.100\n",
      "  Stream #0:0(und): Video: h264 (High) (avc1 / 0x31637661), yuv420p(tv, bt709, progressive), 1920x1080 [SAR 1:1 DAR 16:9], q=2-31, 5077 kb/s, 50 fps, 50 tbr, 12800 tbn (default)\n",
      "    Metadata:\n",
      "      handler_name    : ISO Media file produced by Google Inc.\n",
      "      vendor_id       : [0][0][0][0]\n",
      "  Stream #0:1(eng): Audio: opus (Opus / 0x7375704F), 48000 Hz, stereo, fltp, 1 kb/s (default)\n",
      "    Metadata:\n",
      "      handler_name    : SoundHandler\n",
      "      vendor_id       : [0][0][0][0]\n",
      "Stream mapping:\n",
      "  Stream #0:0 -> #0:0 (copy)\n",
      "  Stream #0:1 -> #0:1 (copy)\n",
      "Press [q] to stop, [?] for help\n",
      "size=       0kB time=N/A bitrate=N/A speed=N/A    \r"
     ]
    },
    {
     "name": "stdout",
     "output_type": "stream",
     "text": [
      "10-Sekunden-Clip erstellt: random_clip_250316 - Sarnen - Jets - SF2 - Stream.mp4\n"
     ]
    },
    {
     "name": "stderr",
     "output_type": "stream",
     "text": [
      "[out#0/mp4 @ 0x55e5301ed540] video:20823kB audio:4kB subtitle:0kB other streams:0kB global headers:0kB muxing overhead: 0.110585%\n",
      "size=   20851kB time=00:00:29.98 bitrate=5695.8kbits/s speed=0.882x    \n"
     ]
    }
   ],
   "source": [
    "if __name__ == \"__main__\":\n",
    "    create_random_clip()"
   ]
  },
  {
   "cell_type": "code",
   "execution_count": null,
   "id": "218155a0",
   "metadata": {},
   "outputs": [],
   "source": []
  }
 ],
 "metadata": {
  "kernelspec": {
   "display_name": "ytdl",
   "language": "python",
   "name": "python3"
  },
  "language_info": {
   "codemirror_mode": {
    "name": "ipython",
    "version": 3
   },
   "file_extension": ".py",
   "mimetype": "text/x-python",
   "name": "python",
   "nbconvert_exporter": "python",
   "pygments_lexer": "ipython3",
   "version": "3.13.3"
  }
 },
 "nbformat": 4,
 "nbformat_minor": 5
}
